<?xml version="1.0" encoding="utf-8"?>
<!-- Generator: Adobe Illustrator 17.0.0, SVG Export Plug-In . SVG Version: 6.00 Build 0)  -->
<!DOCTYPE svg PUBLIC "-//W3C//DTD SVG 1.1//EN" "http://www.w3.org/Graphics/SVG/1.1/DTD/svg11.dtd">
<svg version="1.1" id="Layer_1" xmlns="http://www.w3.org/2000/svg" xmlns:xlink="http://www.w3.org/1999/xlink" x="0px" y="0px"
	 width="988px" height="274px" viewBox="0 0 988 274" style="enable-background:new 0 0 988 274;" xml:space="preserve">
<style type="text/css">
	.st0{fill:#27AAE1;}
	.st1{fill:#FFFFFF;}
</style>
<g>
	<circle cx="807.003" cy="137.94" r="121.253"/>
	<g>
		<path class="st0" d="M807.503,269.979c-73.082,0-132.538-59.457-132.538-132.539S734.421,4.902,807.503,4.902
			S940.042,64.358,940.042,137.44S880.585,269.979,807.503,269.979z M807.503,10.902c-69.773,0-126.538,56.765-126.538,126.539
			s56.765,126.539,126.538,126.539s126.539-56.765,126.539-126.539S877.276,10.902,807.503,10.902z"/>
	</g>
	<circle class="st0" cx="926.503" cy="65.364" r="57.462"/>
	<g>
		<path class="st1" d="M763.311,90.175c0-4.74,1.693-8.802,5.078-12.188c3.386-3.385,7.448-5.078,12.188-5.078
			s8.802,1.693,12.188,5.078s5.078,7.448,5.078,12.188s-1.692,8.802-5.078,12.188c-3.386,3.385-7.448,5.078-12.188,5.078
			s-8.802-1.693-12.188-5.078C765.004,98.977,763.311,94.915,763.311,90.175z M795.98,210.356h-30.807v-86.835h30.807V210.356z"/>
		<path class="st1" d="M849.975,210.356h-30.807v-61.445h-9.987v-25.39h9.987V97.454h30.807v26.067h17.096v25.39h-17.096V210.356z"
			/>
	</g>
	<g>
		<path class="st1" d="M917.022,55.564V33.292h19.09v22.272h22.908v19.09h-22.908v22.781h-19.09V74.654h-23.035v-19.09H917.022z"/>
	</g>
	<g>
		<path class="st0" d="M151.702,210.356h-39.245l-9.157-24.481H52.656l-9.531,24.481H4.254L58.449,69.449h39.992L151.702,210.356z
			 M93.396,157.843l-15.137-45.412l-15.324,45.412H93.396z"/>
		<path class="st0" d="M162.913,69.449h51.018c20.306,0,37.437,6.792,51.392,20.37c13.952,13.581,20.931,30.274,20.931,50.083
			c0,20.061-7.102,36.815-21.304,50.271c-14.203,13.456-31.957,20.183-53.261,20.183h-48.775V69.449z M247.943,139.902
			c0-12.457-3.521-22.145-10.559-29.06c-7.04-6.915-16.79-10.372-29.247-10.372h-8.596v78.863h7.849
			c12.708,0,22.642-3.458,29.807-10.372C244.36,162.048,247.943,152.362,247.943,139.902z"/>
		<path class="st0" d="M335.028,69.449h36.628v94.935c0,15.949-4.205,28.189-12.614,36.722c-8.41,8.535-19.529,12.801-33.358,12.801
			c-8.223,0-15.762-2.1-22.612-6.298c-6.853-4.199-11.709-9.055-14.577-14.571l21.304-22.113c2.243,3.434,4.421,6.074,6.541,7.913
			c2.99,2.698,5.916,4.047,8.783,4.047c3.487,0,6.009-1.615,7.569-4.85c1.556-3.235,2.336-8.024,2.336-14.366V69.449z"/>
		<path class="st0" d="M480.233,146.817V69.449h36.628v86.338c0,18.939-5.232,33.39-15.697,43.356
			c-10.466,9.969-25.667,14.951-45.599,14.951c-19.935,0-35.166-4.953-45.692-14.857c-10.529-9.905-15.791-24.388-15.791-43.45
			V69.449h36.628v77.368c0,11.96,1.898,20.808,5.7,26.537c3.799,5.732,10.059,8.596,18.781,8.596c8.597,0,14.918-2.896,18.969-8.69
			C478.207,167.467,480.233,158.655,480.233,146.817z"/>
		<path class="st0" d="M637.96,163.076c0,16.323-4.859,28.905-14.576,37.75c-9.718,8.848-23.425,13.269-41.114,13.269
			c-8.97,0-18.127-1.682-27.471-5.046c-8.101-2.865-15.138-6.541-21.117-11.026l16.071-29.527c3.486,3.615,7.724,6.728,12.708,9.344
			c6.602,3.489,13.204,5.233,19.809,5.233c4.859,0,9-1.309,12.428-3.925c3.425-2.616,5.14-5.854,5.14-9.718
			c0-4.485-2.43-8.158-7.289-11.026c-3.862-2.365-10.091-4.607-18.688-6.728c-12.212-2.864-21.024-7.382-26.443-13.549
			c-5.42-6.167-8.129-14.544-8.129-25.135c0-14.077,4.546-25.477,13.642-34.199c9.093-8.719,20.992-13.082,35.694-13.082
			c7.723,0,15.354,1.06,22.893,3.177c7.536,2.12,14.419,4.923,20.65,8.41L617.59,105.89c-2.242-2.242-5.483-4.298-9.718-6.167
			c-4.984-2.242-9.656-3.364-14.016-3.364c-4.485,0-8.316,1.092-11.493,3.271c-3.177,2.181-4.766,4.766-4.766,7.755
			c0,4.363,2.739,8.036,8.223,11.026c3.986,2.12,10.714,4.363,20.184,6.728C627.308,131.744,637.96,144.388,637.96,163.076z"/>
		<path class="st0" d="M711.403,210.356h-36.629V100.471H644.5V69.449h97.178v31.022h-30.274V210.356z"/>
	</g>
</g>
</svg>
