<?xml version="1.0" encoding="UTF-8" standalone="no"?>
<!-- Created with Inkscape (http://www.inkscape.org/) -->

<svg
   xmlns:dc="http://purl.org/dc/elements/1.1/"
   xmlns:cc="http://creativecommons.org/ns#"
   xmlns:rdf="http://www.w3.org/1999/02/22-rdf-syntax-ns#"
   xmlns:svg="http://www.w3.org/2000/svg"
   xmlns="http://www.w3.org/2000/svg"
   xmlns:sodipodi="http://sodipodi.sourceforge.net/DTD/sodipodi-0.dtd"
   xmlns:inkscape="http://www.inkscape.org/namespaces/inkscape"
   width="219mm"
   height="95mm"
   viewBox="0 0 775.98338 336.61402"
   id="svg2"
   version="1.1"
   inkscape:version="0.92.2 (5c3e80d, 2017-08-06)"
   sodipodi:docname="registration_plate.svg">
  <defs
     id="defs4">
    <clipPath
       id="clipPath4150"
       clipPathUnits="userSpaceOnUse">
      <path
         inkscape:connector-curvature="0"
         id="path4152"
         d="M 0,391 720,391 720,0 0,0 0,391 Z" />
    </clipPath>
    <clipPath
       clipPathUnits="userSpaceOnUse"
       id="clipPath4150-8">
      <path
         d="M 0,391 720,391 720,0 0,0 0,391 Z"
         id="path4152-3"
         inkscape:connector-curvature="0" />
    </clipPath>
    <clipPath
       id="clipPath4884"
       clipPathUnits="userSpaceOnUse">
      <path
         inkscape:connector-curvature="0"
         id="path4886"
         d="M 0,391 720,391 720,0 0,0 0,391 Z" />
    </clipPath>
    <clipPath
       id="clipPath4997"
       clipPathUnits="userSpaceOnUse">
      <path
         inkscape:connector-curvature="0"
         id="path4999"
         d="M 0,391 720,391 720,0 0,0 0,391 Z" />
    </clipPath>
    <clipPath
       id="clipPath5282"
       clipPathUnits="userSpaceOnUse">
      <path
         inkscape:connector-curvature="0"
         id="path5284"
         d="M 0,391 720,391 720,0 0,0 0,391 Z" />
    </clipPath>
    <clipPath
       clipPathUnits="userSpaceOnUse"
       id="clipPath4150-1">
      <path
         d="M 0,391 720,391 720,0 0,0 0,391 Z"
         id="path4152-0"
         inkscape:connector-curvature="0" />
    </clipPath>
    <clipPath
       id="clipPath4150-8-0"
       clipPathUnits="userSpaceOnUse">
      <path
         inkscape:connector-curvature="0"
         id="path4152-3-6"
         d="M 0,391 720,391 720,0 0,0 0,391 Z" />
    </clipPath>
    <clipPath
       clipPathUnits="userSpaceOnUse"
       id="clipPath4884-2">
      <path
         d="M 0,391 720,391 720,0 0,0 0,391 Z"
         id="path4886-5"
         inkscape:connector-curvature="0" />
    </clipPath>
    <clipPath
       clipPathUnits="userSpaceOnUse"
       id="clipPath4997-7">
      <path
         d="M 0,391 720,391 720,0 0,0 0,391 Z"
         id="path4999-1"
         inkscape:connector-curvature="0" />
    </clipPath>
    <clipPath
       id="clipPath5475"
       clipPathUnits="userSpaceOnUse">
      <path
         inkscape:connector-curvature="0"
         id="path5477"
         d="M 0,391 720,391 720,0 0,0 0,391 Z" />
    </clipPath>
    <clipPath
       id="clipPath5666"
       clipPathUnits="userSpaceOnUse">
      <path
         inkscape:connector-curvature="0"
         id="path5668"
         d="M 0,391 720,391 720,0 0,0 0,391 Z" />
    </clipPath>
    <clipPath
       id="clipPath5779"
       clipPathUnits="userSpaceOnUse">
      <path
         inkscape:connector-curvature="0"
         id="path5781"
         d="M 0,391 720,391 720,0 0,0 0,391 Z" />
    </clipPath>
    <clipPath
       id="clipPath5970"
       clipPathUnits="userSpaceOnUse">
      <path
         inkscape:connector-curvature="0"
         id="path5972"
         d="M 0,391 720,391 720,0 0,0 0,391 Z" />
    </clipPath>
    <clipPath
       id="clipPath6191"
       clipPathUnits="userSpaceOnUse">
      <path
         inkscape:connector-curvature="0"
         id="path6193"
         d="M 0,391 720,391 720,0 0,0 0,391 Z" />
    </clipPath>
    <clipPath
       id="clipPath6382"
       clipPathUnits="userSpaceOnUse">
      <path
         inkscape:connector-curvature="0"
         id="path6384"
         d="M 0,391 720,391 720,0 0,0 0,391 Z" />
    </clipPath>
    <clipPath
       id="clipPath6573"
       clipPathUnits="userSpaceOnUse">
      <path
         inkscape:connector-curvature="0"
         id="path6575"
         d="M 0,391 720,391 720,0 0,0 0,391 Z" />
    </clipPath>
    <clipPath
       id="clipPath6686"
       clipPathUnits="userSpaceOnUse">
      <path
         inkscape:connector-curvature="0"
         id="path6688"
         d="M 0,391 720,391 720,0 0,0 0,391 Z" />
    </clipPath>
    <clipPath
       id="clipPath6859"
       clipPathUnits="userSpaceOnUse">
      <path
         inkscape:connector-curvature="0"
         id="path6861"
         d="M 0,391 720,391 720,0 0,0 0,391 Z" />
    </clipPath>
    <clipPath
       id="clipPath7020"
       clipPathUnits="userSpaceOnUse">
      <path
         inkscape:connector-curvature="0"
         id="path7022"
         d="M 0,391 720,391 720,0 0,0 0,391 Z" />
    </clipPath>
    <clipPath
       id="clipPath7127"
       clipPathUnits="userSpaceOnUse">
      <path
         inkscape:connector-curvature="0"
         id="path7129"
         d="M 0,391 720,391 720,0 0,0 0,391 Z" />
    </clipPath>
    <clipPath
       id="clipPath7642"
       clipPathUnits="userSpaceOnUse">
      <path
         inkscape:connector-curvature="0"
         id="path7644"
         d="M 0,391 720,391 720,0 0,0 0,391 Z" />
    </clipPath>
    <clipPath
       id="clipPath7670"
       clipPathUnits="userSpaceOnUse">
      <path
         inkscape:connector-curvature="0"
         id="path7672"
         d="M 0,391 720,391 720,0 0,0 0,391 Z" />
    </clipPath>
    <clipPath
       id="clipPath7743"
       clipPathUnits="userSpaceOnUse">
      <path
         inkscape:connector-curvature="0"
         id="path7745"
         d="M 0,391 720,391 720,0 0,0 0,391 Z" />
    </clipPath>
    <clipPath
       id="clipPath7934"
       clipPathUnits="userSpaceOnUse">
      <path
         inkscape:connector-curvature="0"
         id="path7936"
         d="M 0,391 720,391 720,0 0,0 0,391 Z" />
    </clipPath>
    <clipPath
       id="clipPath8047"
       clipPathUnits="userSpaceOnUse">
      <path
         inkscape:connector-curvature="0"
         id="path8049"
         d="M 0,391 720,391 720,0 0,0 0,391 Z" />
    </clipPath>
    <clipPath
       id="clipPath8238"
       clipPathUnits="userSpaceOnUse">
      <path
         inkscape:connector-curvature="0"
         id="path8240"
         d="M 0,391 720,391 720,0 0,0 0,391 Z" />
    </clipPath>
    <clipPath
       id="clipPath8459"
       clipPathUnits="userSpaceOnUse">
      <path
         inkscape:connector-curvature="0"
         id="path8461"
         d="M 0,391 720,391 720,0 0,0 0,391 Z" />
    </clipPath>
    <clipPath
       id="clipPath8632"
       clipPathUnits="userSpaceOnUse">
      <path
         inkscape:connector-curvature="0"
         id="path8634"
         d="M 0,391 720,391 720,0 0,0 0,391 Z" />
    </clipPath>
    <clipPath
       id="clipPath8823"
       clipPathUnits="userSpaceOnUse">
      <path
         inkscape:connector-curvature="0"
         id="path8825"
         d="M 0,391 720,391 720,0 0,0 0,391 Z" />
    </clipPath>
    <clipPath
       id="clipPath8936"
       clipPathUnits="userSpaceOnUse">
      <path
         inkscape:connector-curvature="0"
         id="path8938"
         d="M 0,391 720,391 720,0 0,0 0,391 Z" />
    </clipPath>
    <clipPath
       id="clipPath9127"
       clipPathUnits="userSpaceOnUse">
      <path
         inkscape:connector-curvature="0"
         id="path9129"
         d="M 0,391 720,391 720,0 0,0 0,391 Z" />
    </clipPath>
    <clipPath
       id="clipPath9348"
       clipPathUnits="userSpaceOnUse">
      <path
         inkscape:connector-curvature="0"
         id="path9350"
         d="M 0,391 720,391 720,0 0,0 0,391 Z" />
    </clipPath>
    <clipPath
       id="clipPath9521"
       clipPathUnits="userSpaceOnUse">
      <path
         inkscape:connector-curvature="0"
         id="path9523"
         d="M 0,391 720,391 720,0 0,0 0,391 Z" />
    </clipPath>
    <clipPath
       id="clipPath9682"
       clipPathUnits="userSpaceOnUse">
      <path
         inkscape:connector-curvature="0"
         id="path9684"
         d="M 0,391 720,391 720,0 0,0 0,391 Z" />
    </clipPath>
    <clipPath
       id="clipPath9903"
       clipPathUnits="userSpaceOnUse">
      <path
         inkscape:connector-curvature="0"
         id="path9905"
         d="M 0,391 720,391 720,0 0,0 0,391 Z" />
    </clipPath>
    <clipPath
       id="clipPath10064"
       clipPathUnits="userSpaceOnUse">
      <path
         inkscape:connector-curvature="0"
         id="path10066"
         d="M 0,391 720,391 720,0 0,0 0,391 Z" />
    </clipPath>
    <clipPath
       id="clipPath10579"
       clipPathUnits="userSpaceOnUse">
      <path
         inkscape:connector-curvature="0"
         id="path10581"
         d="M 0,391 720,391 720,0 0,0 0,391 Z" />
    </clipPath>
    <clipPath
       id="clipPath10607"
       clipPathUnits="userSpaceOnUse">
      <path
         inkscape:connector-curvature="0"
         id="path10609"
         d="M 0,391 720,391 720,0 0,0 0,391 Z" />
    </clipPath>
    <clipPath
       id="clipPath10680"
       clipPathUnits="userSpaceOnUse">
      <path
         inkscape:connector-curvature="0"
         id="path10682"
         d="M 0,391 720,391 720,0 0,0 0,391 Z" />
    </clipPath>
  </defs>
  <sodipodi:namedview
     id="base"
     pagecolor="#ffffff"
     bordercolor="#666666"
     borderopacity="1.0"
     inkscape:pageopacity="0.0"
     inkscape:pageshadow="2"
     inkscape:zoom="0.70710678"
     inkscape:cx="449.10536"
     inkscape:cy="446.66654"
     inkscape:document-units="px"
     inkscape:current-layer="layer1"
     showgrid="false"
     inkscape:window-width="1920"
     inkscape:window-height="1027"
     inkscape:window-x="-8"
     inkscape:window-y="405"
     inkscape:window-maximized="1"
     showguides="false" />
  <metadata
     id="metadata7">
    <rdf:RDF>
      <cc:Work
         rdf:about="">
        <dc:format>image/svg+xml</dc:format>
        <dc:type
           rdf:resource="http://purl.org/dc/dcmitype/StillImage" />
        <dc:title />
      </cc:Work>
    </rdf:RDF>
  </metadata>
  <g
     inkscape:label="Layer 1"
     inkscape:groupmode="layer"
     id="layer1"
     transform="translate(0,-715.74813)">
    <g
       transform="matrix(1.2499996,0,0,-1.2499994,-54.176396,1143.7724)"
       inkscape:label="NS-2240 AAMC Illustrations v2a"
       id="g10674"
       style="stroke:#000000">
      <g
         id="g10676"
         style="stroke:#000000">
        <g
           clip-path="url(#clipPath10680)"
           id="g10678"
           style="stroke:#000000">
          <g
             transform="translate(631.7041,122.1284)"
             id="g10684"
             style="stroke:#000000">
            <path
               inkscape:connector-curvature="0"
               id="path10686"
               style="fill:none;stroke:#000000;stroke-width:4;stroke-linecap:round;stroke-linejoin:round;stroke-miterlimit:10;stroke-dasharray:none;stroke-opacity:1"
               d="m 0,0 c 0,-5.5 -4.5,-10 -10,-10 l -535.939,0 c -5.5,0 -10,4.5 -10,10 l 0,171.291 c 0,5.5 4.5,10 10,10 l 535.939,0 c 5.5,0 10,-4.5 10,-10 L 0,0 Z" />
          </g>
          <g
             transform="translate(623.3517,129.9848)"
             id="g10688"
             style="stroke:#000000">
            <path
               inkscape:connector-curvature="0"
               id="path10690"
               style="fill:none;stroke:#000000;stroke-width:1;stroke-linecap:round;stroke-linejoin:round;stroke-miterlimit:10;stroke-dasharray:none;stroke-opacity:1"
               d="m 0,0 c 0,-4.933 -4.036,-8.968 -8.968,-8.968 l -519.673,0 c -4.933,0 -8.969,4.035 -8.969,8.968 l 0,155.578 c 0,4.932 4.036,8.968 8.969,8.968 l 519.673,0 C -4.036,164.546 0,160.51 0,155.578 L 0,0 Z" />
          </g>
          <g
             transform="translate(91.3358,281.5558)"
             id="g10692"
             style="stroke:#000000">
            <path
               inkscape:connector-curvature="0"
               id="path10694"
               style="fill:none;stroke:#000000;stroke-width:1;stroke-linecap:round;stroke-linejoin:round;stroke-miterlimit:10;stroke-dasharray:none;stroke-opacity:1"
               d="M 0,0 C 1.025,4.181 5.245,6.74 9.426,5.715 13.607,4.69 16.166,0.47 15.141,-3.711 14.117,-7.892 9.896,-10.451 5.715,-9.426 1.534,-8.401 -1.025,-4.181 0,0 Z" />
          </g>
          <g
             transform="translate(99.5,283)"
             id="g10696"
             style="stroke:#000000">
            <path
               inkscape:connector-curvature="0"
               id="path10698"
               style="fill:none;stroke:#000000;stroke-width:1;stroke-linecap:round;stroke-linejoin:round;stroke-miterlimit:10;stroke-dasharray:none;stroke-opacity:1"
               d="M 0,0 0,-7" />
          </g>
          <g
             transform="translate(96,279.5)"
             id="g10700"
             style="stroke:#000000">
            <path
               inkscape:connector-curvature="0"
               id="path10702"
               style="fill:none;stroke:#000000;stroke-width:1;stroke-linecap:round;stroke-linejoin:round;stroke-miterlimit:10;stroke-dasharray:none;stroke-opacity:1"
               d="M 0,0 7,0" />
          </g>
          <g
             transform="translate(602.7982,277.4977)"
             id="g10704"
             style="stroke:#000000">
            <path
               inkscape:connector-curvature="0"
               id="path10706"
               style="fill:none;stroke:#000000;stroke-width:1;stroke-linecap:round;stroke-linejoin:round;stroke-miterlimit:10;stroke-dasharray:none;stroke-opacity:1"
               d="m 0,0 c -1.769,3.925 -0.021,8.54 3.904,10.309 3.925,1.769 8.54,0.021 10.309,-3.904 1.769,-3.924 0.021,-8.54 -3.904,-10.309 C 6.384,-5.673 1.769,-3.925 0,0 Z" />
          </g>
          <g
             transform="translate(608.3392,283.6651)"
             id="g10708"
             style="stroke:#000000">
            <path
               inkscape:connector-curvature="0"
               id="path10710"
               style="fill:none;stroke:#000000;stroke-width:1;stroke-linecap:round;stroke-linejoin:round;stroke-miterlimit:10;stroke-dasharray:none;stroke-opacity:1"
               d="M 0,0 4.313,-5.514" />
          </g>
          <g
             transform="translate(607.7386,278.7519)"
             id="g10712"
             style="stroke:#000000">
            <path
               inkscape:connector-curvature="0"
               id="path10714"
               style="fill:none;stroke:#000000;stroke-width:1;stroke-linecap:round;stroke-linejoin:round;stroke-miterlimit:10;stroke-dasharray:none;stroke-opacity:1"
               d="M 0,0 5.514,4.313" />
          </g>
          <g
             transform="translate(604.5887,129.0013)"
             id="g10716"
             style="stroke:#000000">
            <path
               inkscape:connector-curvature="0"
               id="path10718"
               style="fill:none;stroke:#000000;stroke-width:1;stroke-linecap:round;stroke-linejoin:round;stroke-miterlimit:10;stroke-dasharray:none;stroke-opacity:1"
               d="m 0,0 c -3.148,2.937 -3.318,7.869 -0.381,11.017 2.937,3.147 7.869,3.318 11.017,0.381 C 13.783,8.461 13.954,3.529 11.017,0.381 8.08,-2.766 3.148,-2.937 0,0 Z" />
          </g>
          <g
             transform="translate(607.3174,136.8304)"
             id="g10720"
             style="stroke:#000000">
            <path
               inkscape:connector-curvature="0"
               id="path10722"
               style="fill:none;stroke:#000000;stroke-width:1;stroke-linecap:round;stroke-linejoin:round;stroke-miterlimit:10;stroke-dasharray:none;stroke-opacity:1"
               d="M 0,0 6.108,-3.42" />
          </g>
          <g
             transform="translate(608.6613,132.0665)"
             id="g10724"
             style="stroke:#000000">
            <path
               inkscape:connector-curvature="0"
               id="path10726"
               style="fill:none;stroke:#000000;stroke-width:1;stroke-linecap:round;stroke-linejoin:round;stroke-miterlimit:10;stroke-dasharray:none;stroke-opacity:1"
               d="M 0,0 3.42,6.108" />
          </g>
          <g
             transform="translate(93.7479,131.6161)"
             id="g10728"
             style="stroke:#000000">
            <path
               inkscape:connector-curvature="0"
               id="path10730"
               style="fill:none;stroke:#000000;stroke-width:1;stroke-linecap:round;stroke-linejoin:round;stroke-miterlimit:10;stroke-dasharray:none;stroke-opacity:1"
               d="M 0,0 C -1.703,3.954 0.121,8.539 4.074,10.243 8.028,11.946 12.614,10.122 14.317,6.169 16.021,2.215 14.196,-2.371 10.243,-4.074 6.289,-5.778 1.703,-3.954 0,0 Z" />
          </g>
          <g
             transform="translate(99.3906,137.6907)"
             id="g10732"
             style="stroke:#000000">
            <path
               inkscape:connector-curvature="0"
               id="path10734"
               style="fill:none;stroke:#000000;stroke-width:1;stroke-linecap:round;stroke-linejoin:round;stroke-miterlimit:10;stroke-dasharray:none;stroke-opacity:1"
               d="M 0,0 4.22,-5.585" />
          </g>
          <g
             transform="translate(98.7085,132.7881)"
             id="g10736"
             style="stroke:#000000">
            <path
               inkscape:connector-curvature="0"
               id="path10738"
               style="fill:none;stroke:#000000;stroke-width:1;stroke-linecap:round;stroke-linejoin:round;stroke-miterlimit:10;stroke-dasharray:none;stroke-opacity:1"
               d="M 0,0 5.585,4.22" />
          </g>
        </g>
      </g>
    </g>
  </g>
</svg>
