<?xml version="1.0" encoding="UTF-8" standalone="no"?>
<!-- Created with Inkscape (http://www.inkscape.org/) -->

<svg
   xmlns:dc="http://purl.org/dc/elements/1.1/"
   xmlns:cc="http://creativecommons.org/ns#"
   xmlns:rdf="http://www.w3.org/1999/02/22-rdf-syntax-ns#"
   xmlns:svg="http://www.w3.org/2000/svg"
   xmlns="http://www.w3.org/2000/svg"
   xmlns:sodipodi="http://sodipodi.sourceforge.net/DTD/sodipodi-0.dtd"
   xmlns:inkscape="http://www.inkscape.org/namespaces/inkscape"
   width="219mm"
   height="95mm"
   viewBox="0 0 775.98338 336.61402"
   id="svg2"
   version="1.1"
   inkscape:version="0.92.2 (5c3e80d, 2017-08-06)"
   sodipodi:docname="sedan_front_left.svg">
  <defs
     id="defs4">
    <clipPath
       id="clipPath4150"
       clipPathUnits="userSpaceOnUse">
      <path
         inkscape:connector-curvature="0"
         id="path4152"
         d="M 0,391 720,391 720,0 0,0 0,391 Z" />
    </clipPath>
    <clipPath
       clipPathUnits="userSpaceOnUse"
       id="clipPath4150-8">
      <path
         d="M 0,391 720,391 720,0 0,0 0,391 Z"
         id="path4152-3"
         inkscape:connector-curvature="0" />
    </clipPath>
    <clipPath
       id="clipPath4884"
       clipPathUnits="userSpaceOnUse">
      <path
         inkscape:connector-curvature="0"
         id="path4886"
         d="M 0,391 720,391 720,0 0,0 0,391 Z" />
    </clipPath>
    <clipPath
       id="clipPath4997"
       clipPathUnits="userSpaceOnUse">
      <path
         inkscape:connector-curvature="0"
         id="path4999"
         d="M 0,391 720,391 720,0 0,0 0,391 Z" />
    </clipPath>
    <clipPath
       id="clipPath5282"
       clipPathUnits="userSpaceOnUse">
      <path
         inkscape:connector-curvature="0"
         id="path5284"
         d="M 0,391 720,391 720,0 0,0 0,391 Z" />
    </clipPath>
    <clipPath
       clipPathUnits="userSpaceOnUse"
       id="clipPath4150-1">
      <path
         d="M 0,391 720,391 720,0 0,0 0,391 Z"
         id="path4152-0"
         inkscape:connector-curvature="0" />
    </clipPath>
    <clipPath
       id="clipPath4150-8-0"
       clipPathUnits="userSpaceOnUse">
      <path
         inkscape:connector-curvature="0"
         id="path4152-3-6"
         d="M 0,391 720,391 720,0 0,0 0,391 Z" />
    </clipPath>
    <clipPath
       clipPathUnits="userSpaceOnUse"
       id="clipPath4884-2">
      <path
         d="M 0,391 720,391 720,0 0,0 0,391 Z"
         id="path4886-5"
         inkscape:connector-curvature="0" />
    </clipPath>
    <clipPath
       clipPathUnits="userSpaceOnUse"
       id="clipPath4997-7">
      <path
         d="M 0,391 720,391 720,0 0,0 0,391 Z"
         id="path4999-1"
         inkscape:connector-curvature="0" />
    </clipPath>
    <clipPath
       id="clipPath5475"
       clipPathUnits="userSpaceOnUse">
      <path
         inkscape:connector-curvature="0"
         id="path5477"
         d="M 0,391 720,391 720,0 0,0 0,391 Z" />
    </clipPath>
    <clipPath
       id="clipPath5666"
       clipPathUnits="userSpaceOnUse">
      <path
         inkscape:connector-curvature="0"
         id="path5668"
         d="M 0,391 720,391 720,0 0,0 0,391 Z" />
    </clipPath>
    <clipPath
       id="clipPath5779"
       clipPathUnits="userSpaceOnUse">
      <path
         inkscape:connector-curvature="0"
         id="path5781"
         d="M 0,391 720,391 720,0 0,0 0,391 Z" />
    </clipPath>
    <clipPath
       id="clipPath5970"
       clipPathUnits="userSpaceOnUse">
      <path
         inkscape:connector-curvature="0"
         id="path5972"
         d="M 0,391 720,391 720,0 0,0 0,391 Z" />
    </clipPath>
    <clipPath
       id="clipPath6191"
       clipPathUnits="userSpaceOnUse">
      <path
         inkscape:connector-curvature="0"
         id="path6193"
         d="M 0,391 720,391 720,0 0,0 0,391 Z" />
    </clipPath>
    <clipPath
       id="clipPath6382"
       clipPathUnits="userSpaceOnUse">
      <path
         inkscape:connector-curvature="0"
         id="path6384"
         d="M 0,391 720,391 720,0 0,0 0,391 Z" />
    </clipPath>
    <clipPath
       id="clipPath6573"
       clipPathUnits="userSpaceOnUse">
      <path
         inkscape:connector-curvature="0"
         id="path6575"
         d="M 0,391 720,391 720,0 0,0 0,391 Z" />
    </clipPath>
    <clipPath
       id="clipPath6686"
       clipPathUnits="userSpaceOnUse">
      <path
         inkscape:connector-curvature="0"
         id="path6688"
         d="M 0,391 720,391 720,0 0,0 0,391 Z" />
    </clipPath>
    <clipPath
       id="clipPath6859"
       clipPathUnits="userSpaceOnUse">
      <path
         inkscape:connector-curvature="0"
         id="path6861"
         d="M 0,391 720,391 720,0 0,0 0,391 Z" />
    </clipPath>
    <clipPath
       id="clipPath7020"
       clipPathUnits="userSpaceOnUse">
      <path
         inkscape:connector-curvature="0"
         id="path7022"
         d="M 0,391 720,391 720,0 0,0 0,391 Z" />
    </clipPath>
    <clipPath
       id="clipPath7127"
       clipPathUnits="userSpaceOnUse">
      <path
         inkscape:connector-curvature="0"
         id="path7129"
         d="M 0,391 720,391 720,0 0,0 0,391 Z" />
    </clipPath>
    <clipPath
       id="clipPath7642"
       clipPathUnits="userSpaceOnUse">
      <path
         inkscape:connector-curvature="0"
         id="path7644"
         d="M 0,391 720,391 720,0 0,0 0,391 Z" />
    </clipPath>
    <clipPath
       id="clipPath7670"
       clipPathUnits="userSpaceOnUse">
      <path
         inkscape:connector-curvature="0"
         id="path7672"
         d="M 0,391 720,391 720,0 0,0 0,391 Z" />
    </clipPath>
    <clipPath
       id="clipPath7743"
       clipPathUnits="userSpaceOnUse">
      <path
         inkscape:connector-curvature="0"
         id="path7745"
         d="M 0,391 720,391 720,0 0,0 0,391 Z" />
    </clipPath>
    <clipPath
       id="clipPath7934"
       clipPathUnits="userSpaceOnUse">
      <path
         inkscape:connector-curvature="0"
         id="path7936"
         d="M 0,391 720,391 720,0 0,0 0,391 Z" />
    </clipPath>
    <clipPath
       id="clipPath8047"
       clipPathUnits="userSpaceOnUse">
      <path
         inkscape:connector-curvature="0"
         id="path8049"
         d="M 0,391 720,391 720,0 0,0 0,391 Z" />
    </clipPath>
    <clipPath
       id="clipPath8238"
       clipPathUnits="userSpaceOnUse">
      <path
         inkscape:connector-curvature="0"
         id="path8240"
         d="M 0,391 720,391 720,0 0,0 0,391 Z" />
    </clipPath>
    <clipPath
       id="clipPath8459"
       clipPathUnits="userSpaceOnUse">
      <path
         inkscape:connector-curvature="0"
         id="path8461"
         d="M 0,391 720,391 720,0 0,0 0,391 Z" />
    </clipPath>
    <clipPath
       id="clipPath8632"
       clipPathUnits="userSpaceOnUse">
      <path
         inkscape:connector-curvature="0"
         id="path8634"
         d="M 0,391 720,391 720,0 0,0 0,391 Z" />
    </clipPath>
    <clipPath
       id="clipPath8823"
       clipPathUnits="userSpaceOnUse">
      <path
         inkscape:connector-curvature="0"
         id="path8825"
         d="M 0,391 720,391 720,0 0,0 0,391 Z" />
    </clipPath>
    <clipPath
       id="clipPath8936"
       clipPathUnits="userSpaceOnUse">
      <path
         inkscape:connector-curvature="0"
         id="path8938"
         d="M 0,391 720,391 720,0 0,0 0,391 Z" />
    </clipPath>
  </defs>
  <sodipodi:namedview
     id="base"
     pagecolor="#ffffff"
     bordercolor="#666666"
     borderopacity="1.0"
     inkscape:pageopacity="0.0"
     inkscape:pageshadow="2"
     inkscape:zoom="0.70710678"
     inkscape:cx="449.10536"
     inkscape:cy="446.66654"
     inkscape:document-units="px"
     inkscape:current-layer="layer1"
     showgrid="false"
     inkscape:window-width="1920"
     inkscape:window-height="1027"
     inkscape:window-x="1912"
     inkscape:window-y="406"
     inkscape:window-maximized="1"
     showguides="false" />
  <metadata
     id="metadata7">
    <rdf:RDF>
      <cc:Work
         rdf:about="">
        <dc:format>image/svg+xml</dc:format>
        <dc:type
           rdf:resource="http://purl.org/dc/dcmitype/StillImage" />
        <dc:title />
      </cc:Work>
    </rdf:RDF>
  </metadata>
  <g
     inkscape:label="Layer 1"
     inkscape:groupmode="layer"
     id="layer1"
     transform="translate(0,-715.74813)">
    <g
       transform="matrix(1.2499996,0,0,-1.2499994,-20.385578,1085.3982)"
       inkscape:label="NS-2240 AAMC Illustrations v2a"
       id="g8930"
       style="stroke:#000000">
      <g
         id="g8932"
         style="stroke:#000000">
        <g
           clip-path="url(#clipPath8936)"
           id="g8934"
           style="stroke:#000000">
          <g
             transform="translate(376.1174,97.1008)"
             id="g8940"
             style="stroke:#000000">
            <path
               inkscape:connector-curvature="0"
               id="path8942"
               style="fill:none;stroke:#000000;stroke-width:1;stroke-linecap:round;stroke-linejoin:round;stroke-miterlimit:10;stroke-dasharray:none;stroke-opacity:1"
               d="m 0,0 c 0,-18.674 6.732,-33.812 15.036,-33.812 8.305,0 15.036,15.138 15.036,33.812 0,18.674 -6.731,33.812 -15.036,33.812 C 6.732,33.812 0,18.674 0,0 Z" />
          </g>
          <g
             transform="translate(369.9435,97.6246)"
             id="g8944"
             style="stroke:#000000">
            <path
               inkscape:connector-curvature="0"
               id="path8946"
               style="fill:none;stroke:#000000;stroke-width:4;stroke-linecap:round;stroke-linejoin:round;stroke-miterlimit:10;stroke-dasharray:none;stroke-opacity:1"
               d="m 0,0 c 0,-26.052 9.496,-47.171 21.21,-47.171 11.714,0 21.21,21.119 21.21,47.171 0,26.052 -9.496,47.171 -21.21,47.171 C 9.496,47.171 0,26.052 0,0 Z" />
          </g>
          <g
             transform="translate(501.5075,152.8372)"
             id="g8948"
             style="stroke:#000000">
            <path
               inkscape:connector-curvature="0"
               id="path8950"
               style="fill:none;stroke:#000000;stroke-width:4;stroke-linecap:round;stroke-linejoin:round;stroke-miterlimit:10;stroke-dasharray:none;stroke-opacity:1"
               d="m 0,0 c 0,-17.922 3.51,-32.45 7.84,-32.45 4.33,0 7.841,14.528 7.841,32.45 0,17.922 -3.511,32.45 -7.841,32.45 C 3.51,32.45 0,17.922 0,0 Z" />
          </g>
          <g
             transform="translate(501.5075,150.5398)"
             id="g8952"
             style="stroke:#000000">
            <path
               inkscape:connector-curvature="0"
               id="path8954"
               style="fill:none;stroke:#000000;stroke-width:1;stroke-linecap:round;stroke-linejoin:round;stroke-miterlimit:10;stroke-dasharray:none;stroke-opacity:1"
               d="m 0,0 c 0,-13.449 2.883,-24.352 6.439,-24.352 3.556,0 6.439,10.903 6.439,24.352 0,13.449 -2.883,24.352 -6.439,24.352 C 2.883,24.352 0,13.449 0,0 Z" />
          </g>
          <g
             transform="translate(392.2903,203.6261)"
             id="g8956"
             style="stroke:#000000">
            <path
               inkscape:connector-curvature="0"
               id="path8958"
               style="fill:none;stroke:#000000;stroke-width:1;stroke-linecap:round;stroke-linejoin:round;stroke-miterlimit:10;stroke-dasharray:none;stroke-opacity:1"
               d="m 0,0 c 0,0 -139.237,-2.635 -159.881,1.318 0,0 58.418,51.829 60.175,51.829 1.757,0 117.275,0.439 117.275,0.439 L 0,0 Z" />
          </g>
          <g
             transform="translate(458.5692,216.0539)"
             id="g8960"
             style="stroke:#000000">
            <path
               inkscape:connector-curvature="0"
               id="path8962"
               style="fill:none;stroke:#000000;stroke-width:1;stroke-linecap:round;stroke-linejoin:round;stroke-miterlimit:10;stroke-dasharray:none;stroke-opacity:1"
               d="m 0,0 39.111,12.601 c 0,0 -25.01,32.511 -40.383,32.511 -15.374,0 -27.233,-0.44 -30.747,-4.832 -3.514,-4.392 -18.008,-57.539 -18.008,-57.539 l 9.837,3.393" />
          </g>
          <g
             transform="translate(464.3244,211.5323)"
             id="g8964"
             style="stroke:#000000">
            <path
               inkscape:connector-curvature="0"
               id="path8966"
               style="fill:none;stroke:#000000;stroke-width:1;stroke-linecap:round;stroke-linejoin:round;stroke-miterlimit:10;stroke-dasharray:none;stroke-opacity:1"
               d="M 0,0 C 0,0 14.495,-24.158 9.663,-74.669" />
          </g>
          <g
             transform="translate(500.1684,227.1338)"
             id="g8968"
             style="stroke:#000000">
            <path
               inkscape:connector-curvature="0"
               id="path8970"
               style="fill:none;stroke:#000000;stroke-width:1;stroke-linecap:round;stroke-linejoin:round;stroke-miterlimit:10;stroke-dasharray:none;stroke-opacity:1"
               d="M 0,0 C 0,0 12.032,-19.994 9.397,-32.292" />
          </g>
          <g
             transform="translate(411.6165,192.6453)"
             id="g8972"
             style="stroke:#000000">
            <path
               inkscape:connector-curvature="0"
               id="path8974"
               style="fill:none;stroke:#000000;stroke-width:1;stroke-linecap:round;stroke-linejoin:round;stroke-miterlimit:10;stroke-dasharray:none;stroke-opacity:1"
               d="M 0,0 C 0,0 9.224,-25.915 9.224,-68.959" />
          </g>
          <g
             transform="translate(394.0472,192.206)"
             id="g8976"
             style="stroke:#000000">
            <path
               inkscape:connector-curvature="0"
               id="path8978"
               style="fill:none;stroke:#000000;stroke-width:1;stroke-linecap:round;stroke-linejoin:round;stroke-miterlimit:10;stroke-dasharray:none;stroke-opacity:1"
               d="m 0,0 c 0,0 -21.083,-21.962 -31.185,-25.036 -10.103,-3.075 -70.717,-14.934 -92.678,-14.495 0,0 -74.909,-6.268 -109.428,8.403 0,0 -5.825,3.236 -6.041,6.904" />
          </g>
          <g
             transform="translate(365.4972,159.2636)"
             id="g8980"
             style="stroke:#000000">
            <path
               inkscape:connector-curvature="0"
               id="path8982"
               style="fill:none;stroke:#000000;stroke-width:1;stroke-linecap:round;stroke-linejoin:round;stroke-miterlimit:10;stroke-dasharray:none;stroke-opacity:1"
               d="m 0,0 c 0,0 -65.446,-11.42 -67.642,-12.299 -2.196,-0.878 -34.444,-34.727 -34.444,-34.727 l 73.366,14.411 c 0,0 21.692,11.971 28.72,32.615 z" />
          </g>
          <g
             transform="translate(278.9843,145.3284)"
             id="g8984"
             style="stroke:#000000">
            <path
               inkscape:connector-curvature="0"
               id="path8986"
               style="fill:none;stroke:#000000;stroke-width:1;stroke-linecap:round;stroke-linejoin:round;stroke-miterlimit:10;stroke-dasharray:none;stroke-opacity:1"
               d="m 0,0 c 0,0 -78.963,-9.493 -120.386,9.709 0,0 0.02,-23.445 5.731,-30.034 5.71,-6.588 78.542,-11.892 81.177,-11.892 2.636,0 18.105,12.452 33.478,32.217 z" />
          </g>
          <g
             transform="translate(424.1384,221.8519)"
             id="g8988"
             style="stroke:#000000">
            <path
               inkscape:connector-curvature="0"
               id="path8990"
               style="fill:none;stroke:#000000;stroke-width:1;stroke-linecap:round;stroke-linejoin:round;stroke-miterlimit:10;stroke-dasharray:none;stroke-opacity:1"
               d="m 0,0 29.976,0.328 c 0,0 4.5,-12.68 -6.92,-17.68 l -26.786,0 c 0,0 -4.392,11.42 3.73,17.352 z" />
          </g>
          <g
             transform="translate(445.4374,257.2124)"
             id="g8992"
             style="stroke:#000000">
            <path
               inkscape:connector-curvature="0"
               id="path8994"
               style="fill:none;stroke:#000000;stroke-width:1;stroke-linecap:round;stroke-linejoin:round;stroke-miterlimit:10;stroke-dasharray:none;stroke-opacity:1"
               d="M 0,0 C 0,0 10.542,-16.252 13.177,-35.578" />
          </g>
          <g
             transform="translate(508.4087,120.5)"
             id="g8996"
             style="stroke:#000000">
            <path
               inkscape:connector-curvature="0"
               id="path8998"
               style="fill:none;stroke:#000000;stroke-width:4;stroke-linecap:round;stroke-linejoin:round;stroke-miterlimit:10;stroke-dasharray:none;stroke-opacity:1"
               d="m 0,0 -23.196,1 c 0,0 -2.971,0.799 -2.722,7.029" />
          </g>
          <g
             transform="translate(391.4087,50.5)"
             id="g9000"
             style="stroke:#000000">
            <path
               inkscape:connector-curvature="0"
               id="path9002"
               style="fill:none;stroke:#000000;stroke-width:4;stroke-linecap:round;stroke-linejoin:round;stroke-miterlimit:10;stroke-dasharray:none;stroke-opacity:1"
               d="m 0,0 -45.196,2 c 0,0 -3.148,3.028 -2.899,9.258" />
          </g>
          <g
             transform="translate(158.682,71.7465)"
             id="g9004"
             style="stroke:#000000">
            <path
               inkscape:connector-curvature="0"
               id="path9006"
               style="fill:none;stroke:#000000;stroke-width:4;stroke-linecap:round;stroke-linejoin:round;stroke-miterlimit:10;stroke-dasharray:none;stroke-opacity:1"
               d="m 0,0 c -0.249,-6.23 3.176,-8.666 3.176,-8.666 l 27.551,-1.581 c 0,0 2.666,0.834 7.333,4.834" />
          </g>
          <g
             transform="translate(149.1623,169.3102)"
             id="g9008"
             style="stroke:#000000">
            <path
               inkscape:connector-curvature="0"
               id="path9010"
               style="fill:none;stroke:#000000;stroke-width:1;stroke-linecap:round;stroke-linejoin:round;stroke-miterlimit:10;stroke-dasharray:none;stroke-opacity:1"
               d="m 0,0 c 0,0 -1.913,-5.105 2.454,-13.402 l 4.803,-30.133 c 0,0 -21.055,13.676 -19.323,22.068" />
          </g>
          <g
             transform="translate(417.8522,90.1413)"
             id="g9012"
             style="stroke:#000000">
            <path
               inkscape:connector-curvature="0"
               id="path9014"
               style="fill:none;stroke:#000000;stroke-width:4;stroke-linecap:round;stroke-linejoin:round;stroke-miterlimit:10;stroke-dasharray:none;stroke-opacity:1"
               d="M 0,0 -5.449,0.28" />
          </g>
          <g
             transform="translate(521.0773,165.4723)"
             id="g9016"
             style="stroke:#000000">
            <path
               inkscape:connector-curvature="0"
               id="path9018"
               style="fill:none;stroke:#000000;stroke-width:4;stroke-linecap:round;stroke-linejoin:round;stroke-miterlimit:10;stroke-dasharray:none;stroke-opacity:1"
               d="m 0,0 2.104,0.817 c 0,0 -0.878,-1.32 1.318,21.96 2.196,23.279 -7.906,37.77 -9.663,40.405 -1.757,2.636 -7.467,1.749 -11.859,6.581 l -30.401,26.816 c -15.621,11.43 -112.779,9.525 -112.779,9.525 0,0 -55.627,-3.81 -68.091,-9.218 -5.464,-2.371 -25.931,-18.74 -42.051,-32.122 l -5.247,-4.236 -15,0 c 0,0 -5.946,-4 -2.591,-11 l 5.356,0 -3.717,-2.65 c 0,0 -16.69,-12.363 -40.409,-18.512 -23.718,-6.15 -36.456,-21.899 -41.288,-25.853 -4.831,-3.953 -9.224,-17.977 -9.663,-20.173 -0.439,-2.196 -8.345,-19.311 -8.345,-19.311 0,0 -0.919,-33.102 1.757,-39.962 6.26,-16.049 79.076,-34.174 235.851,-25.003 0,0 1.737,0.035 5.726,1.292 l -2.142,39.89 c 0,29.969 10.924,54.264 24.4,54.264 13.475,0 24.399,-24.295 24.399,-54.264 0,-5.05 -0.31,-9.939 -0.89,-14.577 l 77.658,47.16" />
          </g>
          <g
             transform="translate(495.5099,137.3018)"
             id="g9020"
             style="stroke:#000000">
            <path
               inkscape:connector-curvature="0"
               id="path9022"
               style="fill:none;stroke:#000000;stroke-width:4;stroke-linecap:round;stroke-linejoin:round;stroke-miterlimit:10;stroke-dasharray:none;stroke-opacity:1"
               d="m 0,0 9.768,47.458 c 1.672,4.805 3.781,7.67 6.072,7.67 5.436,0 9.843,-16.127 9.843,-36.021 0,-2.498 -0.07,-4.936 -0.202,-7.29 0,0 0.086,-1.618 -2.794,-2.194" />
          </g>
          <g
             transform="translate(500.8756,210.4005)"
             id="g9024"
             style="stroke:#000000">
            <path
               inkscape:connector-curvature="0"
               id="path9026"
               style="fill:none;stroke:#000000;stroke-width:1;stroke-linecap:round;stroke-linejoin:round;stroke-miterlimit:10;stroke-dasharray:none;stroke-opacity:1"
               d="M 0,0 C -1.708,-0.764 -3.559,-0.444 -4.492,0.673 L 2.517,3.209 C 2.424,1.942 1.477,0.661 0,0 Z" />
          </g>
          <g
             transform="translate(498.3081,216.1402)"
             id="g9028"
             style="stroke:#000000">
            <path
               inkscape:connector-curvature="0"
               id="path9030"
               style="fill:none;stroke:#000000;stroke-width:1;stroke-linecap:round;stroke-linejoin:round;stroke-miterlimit:10;stroke-dasharray:none;stroke-opacity:1"
               d="M 0,0 C 1.685,0.754 3.507,0.448 4.452,-0.633 L -2.507,-3.15 C -2.389,-1.903 -1.454,-0.651 0,0 Z" />
          </g>
          <g
             transform="translate(461.8756,194.4005)"
             id="g9032"
             style="stroke:#000000">
            <path
               inkscape:connector-curvature="0"
               id="path9034"
               style="fill:none;stroke:#000000;stroke-width:1;stroke-linecap:round;stroke-linejoin:round;stroke-miterlimit:10;stroke-dasharray:none;stroke-opacity:1"
               d="M 0,0 C -1.708,-0.764 -3.559,-0.444 -4.492,0.673 L 2.517,3.209 C 2.424,1.942 1.477,0.661 0,0 Z" />
          </g>
          <g
             transform="translate(459.3081,200.1402)"
             id="g9036"
             style="stroke:#000000">
            <path
               inkscape:connector-curvature="0"
               id="path9038"
               style="fill:none;stroke:#000000;stroke-width:1;stroke-linecap:round;stroke-linejoin:round;stroke-miterlimit:10;stroke-dasharray:none;stroke-opacity:1"
               d="M 0,0 C 1.685,0.754 3.507,0.448 4.452,-0.633 L -2.507,-3.15 C -2.389,-1.903 -1.454,-0.651 0,0 Z" />
          </g>
          <g
             transform="translate(138.0597,107.3335)"
             id="g9040"
             style="stroke:#000000">
            <path
               inkscape:connector-curvature="0"
               id="path9042"
               style="fill:none;stroke:#000000;stroke-width:1;stroke-linecap:round;stroke-linejoin:round;stroke-miterlimit:10;stroke-dasharray:none;stroke-opacity:1"
               d="M 0,0 C 21.906,-12.693 89.356,-23.829 207.037,-18.848" />
          </g>
          <g
             transform="translate(161.6109,94.3263)"
             id="g9044"
             style="stroke:#000000">
            <path
               inkscape:connector-curvature="0"
               id="path9046"
               style="fill:none;stroke:#000000;stroke-width:1;stroke-linecap:round;stroke-linejoin:round;stroke-miterlimit:10;stroke-dasharray:none;stroke-opacity:1"
               d="m 0,0 c 0,-4.962 2.551,-13.486 2.551,-13.486 21.225,-4.963 52.25,-8.792 93.524,-10.091 l 2.182,12.858" />
          </g>
          <g
             transform="translate(138.0597,124.3335)"
             id="g9048"
             style="stroke:#000000">
            <path
               inkscape:connector-curvature="0"
               id="path9050"
               style="fill:none;stroke:#000000;stroke-width:1;stroke-linecap:round;stroke-linejoin:round;stroke-miterlimit:10;stroke-dasharray:none;stroke-opacity:1"
               d="M 0,0 C 21.906,-12.693 89.356,-23.829 207.037,-18.848" />
          </g>
        </g>
      </g>
    </g>
  </g>
</svg>
